<mxfile host="Electron" modified="2024-07-01T01:03:27.956Z" agent="Mozilla/5.0 (Windows NT 10.0; Win64; x64) AppleWebKit/537.36 (KHTML, like Gecko) draw.io/24.4.13 Chrome/124.0.6367.207 Electron/30.0.6 Safari/537.36" etag="-JmWMlo03TCLWb3Zo3eH" version="24.4.13" type="device">
  <diagram name="Page-1" id="82TZ0RbtBybBP9VxDGkZ">
    <mxGraphModel dx="2537" dy="984" grid="1" gridSize="10" guides="1" tooltips="1" connect="1" arrows="1" fold="1" page="1" pageScale="1" pageWidth="850" pageHeight="1100" math="0" shadow="0">
      <root>
        <mxCell id="0" />
        <mxCell id="1" parent="0" />
        <mxCell id="IDhVc3HW0Kmtk5wKdFUq-32" style="edgeStyle=none;shape=connector;rounded=0;orthogonalLoop=1;jettySize=auto;html=1;entryX=1;entryY=0.5;entryDx=0;entryDy=0;labelBackgroundColor=default;strokeColor=default;fontFamily=Helvetica;fontSize=11;fontColor=default;endArrow=ERoneToMany;endFill=0;exitX=0;exitY=0.5;exitDx=0;exitDy=0;" parent="1" source="IDhVc3HW0Kmtk5wKdFUq-2" target="IDhVc3HW0Kmtk5wKdFUq-1" edge="1">
          <mxGeometry relative="1" as="geometry">
            <mxPoint x="330" y="380" as="sourcePoint" />
          </mxGeometry>
        </mxCell>
        <mxCell id="6g5vQFqCNQvV4qK4Rjls-4" value="" style="edgeStyle=orthogonalEdgeStyle;rounded=0;orthogonalLoop=1;jettySize=auto;html=1;endArrow=ERmany;endFill=0;startArrow=ERmany;startFill=0;" edge="1" parent="1" source="IDhVc3HW0Kmtk5wKdFUq-1" target="6g5vQFqCNQvV4qK4Rjls-3">
          <mxGeometry relative="1" as="geometry" />
        </mxCell>
        <mxCell id="IDhVc3HW0Kmtk5wKdFUq-1" value="User" style="rounded=0;whiteSpace=wrap;html=1;" parent="1" vertex="1">
          <mxGeometry x="110" y="320" width="120" height="40" as="geometry" />
        </mxCell>
        <mxCell id="IDhVc3HW0Kmtk5wKdFUq-2" value="Books" style="rhombus;whiteSpace=wrap;html=1;" parent="1" vertex="1">
          <mxGeometry x="370" y="280" width="120" height="120" as="geometry" />
        </mxCell>
        <mxCell id="IDhVc3HW0Kmtk5wKdFUq-3" value="Appointment" style="rounded=0;whiteSpace=wrap;html=1;" parent="1" vertex="1">
          <mxGeometry x="620" y="320" width="120" height="40" as="geometry" />
        </mxCell>
        <mxCell id="IDhVc3HW0Kmtk5wKdFUq-6" value="" style="endArrow=ERmany;html=1;rounded=0;exitX=1;exitY=0.5;exitDx=0;exitDy=0;entryX=0;entryY=0.5;entryDx=0;entryDy=0;endFill=0;" parent="1" source="IDhVc3HW0Kmtk5wKdFUq-2" target="IDhVc3HW0Kmtk5wKdFUq-3" edge="1">
          <mxGeometry width="50" height="50" relative="1" as="geometry">
            <mxPoint x="410" y="339.5" as="sourcePoint" />
            <mxPoint x="620" y="339.5" as="targetPoint" />
          </mxGeometry>
        </mxCell>
        <mxCell id="IDhVc3HW0Kmtk5wKdFUq-14" style="rounded=0;orthogonalLoop=1;jettySize=auto;html=1;exitX=0.5;exitY=1;exitDx=0;exitDy=0;entryX=0.5;entryY=1;entryDx=0;entryDy=0;endArrow=none;endFill=0;" parent="1" source="IDhVc3HW0Kmtk5wKdFUq-7" target="6g5vQFqCNQvV4qK4Rjls-14" edge="1">
          <mxGeometry relative="1" as="geometry" />
        </mxCell>
        <mxCell id="IDhVc3HW0Kmtk5wKdFUq-7" value="service_name" style="ellipse;whiteSpace=wrap;html=1;" parent="1" vertex="1">
          <mxGeometry x="580" y="660" width="90" height="50" as="geometry" />
        </mxCell>
        <mxCell id="IDhVc3HW0Kmtk5wKdFUq-15" style="edgeStyle=none;shape=connector;rounded=0;orthogonalLoop=1;jettySize=auto;html=1;exitX=0.5;exitY=1;exitDx=0;exitDy=0;entryX=0.75;entryY=0;entryDx=0;entryDy=0;labelBackgroundColor=default;strokeColor=default;fontFamily=Helvetica;fontSize=11;fontColor=default;endArrow=none;endFill=0;" parent="1" source="IDhVc3HW0Kmtk5wKdFUq-8" target="IDhVc3HW0Kmtk5wKdFUq-1" edge="1">
          <mxGeometry relative="1" as="geometry" />
        </mxCell>
        <mxCell id="IDhVc3HW0Kmtk5wKdFUq-8" value="&lt;u&gt;time_id&lt;/u&gt;" style="ellipse;whiteSpace=wrap;html=1;" parent="1" vertex="1">
          <mxGeometry x="150" y="170" width="90" height="50" as="geometry" />
        </mxCell>
        <mxCell id="IDhVc3HW0Kmtk5wKdFUq-16" style="edgeStyle=none;shape=connector;rounded=0;orthogonalLoop=1;jettySize=auto;html=1;exitX=0.5;exitY=1;exitDx=0;exitDy=0;entryX=1;entryY=0;entryDx=0;entryDy=0;labelBackgroundColor=default;strokeColor=default;fontFamily=Helvetica;fontSize=11;fontColor=default;endArrow=none;endFill=0;" parent="1" source="IDhVc3HW0Kmtk5wKdFUq-9" target="IDhVc3HW0Kmtk5wKdFUq-1" edge="1">
          <mxGeometry relative="1" as="geometry" />
        </mxCell>
        <mxCell id="IDhVc3HW0Kmtk5wKdFUq-9" value="customer_name" style="ellipse;whiteSpace=wrap;html=1;" parent="1" vertex="1">
          <mxGeometry x="250" y="190" width="90" height="50" as="geometry" />
        </mxCell>
        <mxCell id="IDhVc3HW0Kmtk5wKdFUq-13" style="rounded=0;orthogonalLoop=1;jettySize=auto;html=1;exitX=1;exitY=1;exitDx=0;exitDy=0;entryX=0.25;entryY=0;entryDx=0;entryDy=0;endArrow=none;endFill=0;" parent="1" source="IDhVc3HW0Kmtk5wKdFUq-10" target="IDhVc3HW0Kmtk5wKdFUq-1" edge="1">
          <mxGeometry relative="1" as="geometry" />
        </mxCell>
        <mxCell id="IDhVc3HW0Kmtk5wKdFUq-10" value="customer_number" style="ellipse;whiteSpace=wrap;html=1;" parent="1" vertex="1">
          <mxGeometry x="10" y="200" width="110" height="50" as="geometry" />
        </mxCell>
        <mxCell id="IDhVc3HW0Kmtk5wKdFUq-11" value="ticket_id" style="ellipse;whiteSpace=wrap;html=1;" parent="1" vertex="1">
          <mxGeometry x="-10" y="270" width="90" height="50" as="geometry" />
        </mxCell>
        <mxCell id="IDhVc3HW0Kmtk5wKdFUq-12" value="" style="endArrow=none;html=1;rounded=0;exitX=0;exitY=0.5;exitDx=0;exitDy=0;entryX=0.5;entryY=1;entryDx=0;entryDy=0;" parent="1" source="IDhVc3HW0Kmtk5wKdFUq-1" target="IDhVc3HW0Kmtk5wKdFUq-11" edge="1">
          <mxGeometry width="50" height="50" relative="1" as="geometry">
            <mxPoint x="-10" y="370" as="sourcePoint" />
            <mxPoint x="40" y="320" as="targetPoint" />
          </mxGeometry>
        </mxCell>
        <mxCell id="IDhVc3HW0Kmtk5wKdFUq-18" style="edgeStyle=none;shape=connector;rounded=0;orthogonalLoop=1;jettySize=auto;html=1;exitX=1;exitY=0;exitDx=0;exitDy=0;entryX=0;entryY=0.75;entryDx=0;entryDy=0;labelBackgroundColor=default;strokeColor=default;fontFamily=Helvetica;fontSize=11;fontColor=default;endArrow=none;endFill=0;" parent="1" source="IDhVc3HW0Kmtk5wKdFUq-17" target="IDhVc3HW0Kmtk5wKdFUq-1" edge="1">
          <mxGeometry relative="1" as="geometry" />
        </mxCell>
        <mxCell id="IDhVc3HW0Kmtk5wKdFUq-17" value="&lt;u&gt;service_id&lt;/u&gt;" style="ellipse;whiteSpace=wrap;html=1;" parent="1" vertex="1">
          <mxGeometry x="-60" y="340" width="90" height="50" as="geometry" />
        </mxCell>
        <mxCell id="IDhVc3HW0Kmtk5wKdFUq-28" style="edgeStyle=none;shape=connector;rounded=0;orthogonalLoop=1;jettySize=auto;html=1;exitX=0.5;exitY=1;exitDx=0;exitDy=0;entryX=0.5;entryY=0;entryDx=0;entryDy=0;labelBackgroundColor=default;strokeColor=default;fontFamily=Helvetica;fontSize=11;fontColor=default;endArrow=none;endFill=0;" parent="1" source="IDhVc3HW0Kmtk5wKdFUq-20" target="IDhVc3HW0Kmtk5wKdFUq-3" edge="1">
          <mxGeometry relative="1" as="geometry" />
        </mxCell>
        <mxCell id="IDhVc3HW0Kmtk5wKdFUq-20" value="service_name" style="ellipse;whiteSpace=wrap;html=1;" parent="1" vertex="1">
          <mxGeometry x="660" y="160" width="90" height="50" as="geometry" />
        </mxCell>
        <mxCell id="IDhVc3HW0Kmtk5wKdFUq-29" style="edgeStyle=none;shape=connector;rounded=0;orthogonalLoop=1;jettySize=auto;html=1;exitX=0.5;exitY=1;exitDx=0;exitDy=0;entryX=1;entryY=0;entryDx=0;entryDy=0;labelBackgroundColor=default;strokeColor=default;fontFamily=Helvetica;fontSize=11;fontColor=default;endArrow=none;endFill=0;" parent="1" source="IDhVc3HW0Kmtk5wKdFUq-22" target="IDhVc3HW0Kmtk5wKdFUq-3" edge="1">
          <mxGeometry relative="1" as="geometry" />
        </mxCell>
        <mxCell id="IDhVc3HW0Kmtk5wKdFUq-22" value="&lt;u&gt;appointment_id&lt;/u&gt;" style="ellipse;whiteSpace=wrap;html=1;" parent="1" vertex="1">
          <mxGeometry x="770" y="220" width="90" height="50" as="geometry" />
        </mxCell>
        <mxCell id="IDhVc3HW0Kmtk5wKdFUq-30" style="edgeStyle=none;shape=connector;rounded=0;orthogonalLoop=1;jettySize=auto;html=1;exitX=0;exitY=0;exitDx=0;exitDy=0;entryX=1;entryY=0.5;entryDx=0;entryDy=0;labelBackgroundColor=default;strokeColor=default;fontFamily=Helvetica;fontSize=11;fontColor=default;endArrow=none;endFill=0;" parent="1" source="IDhVc3HW0Kmtk5wKdFUq-24" target="IDhVc3HW0Kmtk5wKdFUq-3" edge="1">
          <mxGeometry relative="1" as="geometry" />
        </mxCell>
        <mxCell id="IDhVc3HW0Kmtk5wKdFUq-24" value="&lt;u&gt;appointment_time&lt;/u&gt;" style="ellipse;whiteSpace=wrap;html=1;" parent="1" vertex="1">
          <mxGeometry x="800" y="390" width="110" height="50" as="geometry" />
        </mxCell>
        <mxCell id="IDhVc3HW0Kmtk5wKdFUq-31" style="edgeStyle=none;shape=connector;rounded=0;orthogonalLoop=1;jettySize=auto;html=1;exitX=0.5;exitY=0;exitDx=0;exitDy=0;entryX=0.5;entryY=1;entryDx=0;entryDy=0;labelBackgroundColor=default;strokeColor=default;fontFamily=Helvetica;fontSize=11;fontColor=default;endArrow=none;endFill=0;" parent="1" source="IDhVc3HW0Kmtk5wKdFUq-26" target="IDhVc3HW0Kmtk5wKdFUq-3" edge="1">
          <mxGeometry relative="1" as="geometry" />
        </mxCell>
        <mxCell id="IDhVc3HW0Kmtk5wKdFUq-26" value="price" style="ellipse;whiteSpace=wrap;html=1;" parent="1" vertex="1">
          <mxGeometry x="690" y="460" width="90" height="50" as="geometry" />
        </mxCell>
        <mxCell id="6g5vQFqCNQvV4qK4Rjls-8" value="" style="edgeStyle=orthogonalEdgeStyle;rounded=0;orthogonalLoop=1;jettySize=auto;html=1;entryX=0.5;entryY=0;entryDx=0;entryDy=0;endArrow=ERmany;endFill=0;startArrow=ERmany;startFill=0;" edge="1" parent="1" source="6g5vQFqCNQvV4qK4Rjls-3" target="6g5vQFqCNQvV4qK4Rjls-14">
          <mxGeometry relative="1" as="geometry">
            <mxPoint x="520.0588235294117" y="599.9999999999998" as="targetPoint" />
          </mxGeometry>
        </mxCell>
        <mxCell id="6g5vQFqCNQvV4qK4Rjls-15" style="edgeStyle=orthogonalEdgeStyle;rounded=0;orthogonalLoop=1;jettySize=auto;html=1;entryX=0.5;entryY=0;entryDx=0;entryDy=0;endArrow=ERmany;endFill=0;startArrow=ERmany;startFill=0;" edge="1" parent="1" source="6g5vQFqCNQvV4qK4Rjls-3" target="6g5vQFqCNQvV4qK4Rjls-13">
          <mxGeometry relative="1" as="geometry" />
        </mxCell>
        <mxCell id="6g5vQFqCNQvV4qK4Rjls-34" style="edgeStyle=orthogonalEdgeStyle;rounded=0;orthogonalLoop=1;jettySize=auto;html=1;exitX=0.5;exitY=1;exitDx=0;exitDy=0;endArrow=ERmany;endFill=0;startArrow=ERmany;startFill=0;" edge="1" parent="1" source="6g5vQFqCNQvV4qK4Rjls-3" target="6g5vQFqCNQvV4qK4Rjls-5">
          <mxGeometry relative="1" as="geometry" />
        </mxCell>
        <mxCell id="6g5vQFqCNQvV4qK4Rjls-3" value="Manages" style="rhombus;whiteSpace=wrap;html=1;rounded=0;" vertex="1" parent="1">
          <mxGeometry x="130" y="420" width="80" height="80" as="geometry" />
        </mxCell>
        <mxCell id="6g5vQFqCNQvV4qK4Rjls-27" value="" style="rounded=0;orthogonalLoop=1;jettySize=auto;html=1;endArrow=none;endFill=0;" edge="1" parent="1" source="6g5vQFqCNQvV4qK4Rjls-5" target="6g5vQFqCNQvV4qK4Rjls-26">
          <mxGeometry relative="1" as="geometry" />
        </mxCell>
        <mxCell id="6g5vQFqCNQvV4qK4Rjls-29" style="rounded=0;orthogonalLoop=1;jettySize=auto;html=1;exitX=0.25;exitY=1;exitDx=0;exitDy=0;endArrow=none;endFill=0;" edge="1" parent="1" source="6g5vQFqCNQvV4qK4Rjls-5" target="6g5vQFqCNQvV4qK4Rjls-28">
          <mxGeometry relative="1" as="geometry" />
        </mxCell>
        <mxCell id="6g5vQFqCNQvV4qK4Rjls-31" style="rounded=0;orthogonalLoop=1;jettySize=auto;html=1;exitX=0.75;exitY=1;exitDx=0;exitDy=0;entryX=0.5;entryY=0;entryDx=0;entryDy=0;endArrow=none;endFill=0;" edge="1" parent="1" source="6g5vQFqCNQvV4qK4Rjls-5" target="6g5vQFqCNQvV4qK4Rjls-30">
          <mxGeometry relative="1" as="geometry" />
        </mxCell>
        <mxCell id="6g5vQFqCNQvV4qK4Rjls-33" style="rounded=0;orthogonalLoop=1;jettySize=auto;html=1;exitX=1;exitY=0.75;exitDx=0;exitDy=0;endArrow=none;endFill=0;" edge="1" parent="1" source="6g5vQFqCNQvV4qK4Rjls-5" target="6g5vQFqCNQvV4qK4Rjls-32">
          <mxGeometry relative="1" as="geometry" />
        </mxCell>
        <mxCell id="6g5vQFqCNQvV4qK4Rjls-5" value="Customers" style="whiteSpace=wrap;html=1;rounded=0;" vertex="1" parent="1">
          <mxGeometry x="320" y="580" width="120" height="40" as="geometry" />
        </mxCell>
        <mxCell id="6g5vQFqCNQvV4qK4Rjls-36" style="rounded=0;orthogonalLoop=1;jettySize=auto;html=1;exitX=0.75;exitY=1;exitDx=0;exitDy=0;entryX=0.5;entryY=0;entryDx=0;entryDy=0;endArrow=none;endFill=0;" edge="1" parent="1" source="6g5vQFqCNQvV4qK4Rjls-13" target="6g5vQFqCNQvV4qK4Rjls-37">
          <mxGeometry relative="1" as="geometry">
            <mxPoint x="-30" y="740" as="targetPoint" />
          </mxGeometry>
        </mxCell>
        <mxCell id="6g5vQFqCNQvV4qK4Rjls-13" value="Employees" style="whiteSpace=wrap;html=1;rounded=0;" vertex="1" parent="1">
          <mxGeometry x="-30" y="570" width="120" height="40" as="geometry" />
        </mxCell>
        <mxCell id="6g5vQFqCNQvV4qK4Rjls-23" value="" style="rounded=0;orthogonalLoop=1;jettySize=auto;html=1;endArrow=none;endFill=0;" edge="1" parent="1" source="6g5vQFqCNQvV4qK4Rjls-14" target="6g5vQFqCNQvV4qK4Rjls-22">
          <mxGeometry relative="1" as="geometry" />
        </mxCell>
        <mxCell id="6g5vQFqCNQvV4qK4Rjls-24" style="rounded=0;orthogonalLoop=1;jettySize=auto;html=1;exitX=0.25;exitY=1;exitDx=0;exitDy=0;entryX=0.5;entryY=0;entryDx=0;entryDy=0;endArrow=none;endFill=0;" edge="1" parent="1" source="6g5vQFqCNQvV4qK4Rjls-14" target="6g5vQFqCNQvV4qK4Rjls-25">
          <mxGeometry relative="1" as="geometry">
            <mxPoint x="280" y="669.9999999999998" as="targetPoint" />
          </mxGeometry>
        </mxCell>
        <mxCell id="6g5vQFqCNQvV4qK4Rjls-14" value="Services" style="whiteSpace=wrap;html=1;rounded=0;" vertex="1" parent="1">
          <mxGeometry x="610" y="570" width="120" height="40" as="geometry" />
        </mxCell>
        <mxCell id="6g5vQFqCNQvV4qK4Rjls-16" value="&lt;u&gt;Emp_Id&lt;/u&gt;" style="ellipse;whiteSpace=wrap;html=1;" vertex="1" parent="1">
          <mxGeometry x="-100" y="660" width="90" height="50" as="geometry" />
        </mxCell>
        <mxCell id="6g5vQFqCNQvV4qK4Rjls-17" style="edgeStyle=none;shape=connector;rounded=0;orthogonalLoop=1;jettySize=auto;html=1;exitX=0.25;exitY=1;exitDx=0;exitDy=0;entryX=0.5;entryY=0;entryDx=0;entryDy=0;labelBackgroundColor=default;strokeColor=default;fontFamily=Helvetica;fontSize=11;fontColor=default;endArrow=none;endFill=0;" edge="1" parent="1" source="6g5vQFqCNQvV4qK4Rjls-13" target="6g5vQFqCNQvV4qK4Rjls-16">
          <mxGeometry relative="1" as="geometry">
            <mxPoint x="-20" y="620" as="sourcePoint" />
            <mxPoint x="73" y="623" as="targetPoint" />
          </mxGeometry>
        </mxCell>
        <mxCell id="6g5vQFqCNQvV4qK4Rjls-18" value="Emp Name" style="ellipse;whiteSpace=wrap;html=1;" vertex="1" parent="1">
          <mxGeometry x="80" y="670" width="90" height="50" as="geometry" />
        </mxCell>
        <mxCell id="6g5vQFqCNQvV4qK4Rjls-19" style="edgeStyle=none;shape=connector;rounded=0;orthogonalLoop=1;jettySize=auto;html=1;exitX=0.75;exitY=1;exitDx=0;exitDy=0;entryX=0.5;entryY=0;entryDx=0;entryDy=0;labelBackgroundColor=default;strokeColor=default;fontFamily=Helvetica;fontSize=11;fontColor=default;endArrow=none;endFill=0;" edge="1" parent="1" target="6g5vQFqCNQvV4qK4Rjls-18" source="6g5vQFqCNQvV4qK4Rjls-13">
          <mxGeometry relative="1" as="geometry">
            <mxPoint x="120" y="610" as="sourcePoint" />
            <mxPoint x="193" y="633" as="targetPoint" />
          </mxGeometry>
        </mxCell>
        <mxCell id="6g5vQFqCNQvV4qK4Rjls-20" value="Contact" style="ellipse;whiteSpace=wrap;html=1;" vertex="1" parent="1">
          <mxGeometry x="-180" y="590" width="90" height="50" as="geometry" />
        </mxCell>
        <mxCell id="6g5vQFqCNQvV4qK4Rjls-21" style="edgeStyle=none;shape=connector;rounded=0;orthogonalLoop=1;jettySize=auto;html=1;exitX=0;exitY=0.25;exitDx=0;exitDy=0;entryX=0.5;entryY=0;entryDx=0;entryDy=0;labelBackgroundColor=default;strokeColor=default;fontFamily=Helvetica;fontSize=11;fontColor=default;endArrow=none;endFill=0;" edge="1" parent="1" target="6g5vQFqCNQvV4qK4Rjls-20" source="6g5vQFqCNQvV4qK4Rjls-13">
          <mxGeometry relative="1" as="geometry">
            <mxPoint x="-170" y="520" as="sourcePoint" />
            <mxPoint x="-7" y="553" as="targetPoint" />
          </mxGeometry>
        </mxCell>
        <mxCell id="6g5vQFqCNQvV4qK4Rjls-22" value="&lt;u&gt;Service_Id&lt;/u&gt;" style="ellipse;whiteSpace=wrap;html=1;rounded=0;" vertex="1" parent="1">
          <mxGeometry x="695" y="655" width="80" height="40" as="geometry" />
        </mxCell>
        <mxCell id="6g5vQFqCNQvV4qK4Rjls-25" value="price" style="ellipse;whiteSpace=wrap;html=1;" vertex="1" parent="1">
          <mxGeometry x="460" y="650" width="90" height="50" as="geometry" />
        </mxCell>
        <mxCell id="6g5vQFqCNQvV4qK4Rjls-26" value="Name" style="ellipse;whiteSpace=wrap;html=1;rounded=0;" vertex="1" parent="1">
          <mxGeometry x="230" y="700" width="80" height="50" as="geometry" />
        </mxCell>
        <mxCell id="6g5vQFqCNQvV4qK4Rjls-28" value="&lt;u&gt;ID&lt;/u&gt;" style="ellipse;whiteSpace=wrap;html=1;rounded=0;" vertex="1" parent="1">
          <mxGeometry x="200" y="630" width="80" height="50" as="geometry" />
        </mxCell>
        <mxCell id="6g5vQFqCNQvV4qK4Rjls-30" value="Contact" style="ellipse;whiteSpace=wrap;html=1;rounded=0;" vertex="1" parent="1">
          <mxGeometry x="280" y="760" width="80" height="50" as="geometry" />
        </mxCell>
        <mxCell id="6g5vQFqCNQvV4qK4Rjls-32" value="Address" style="ellipse;whiteSpace=wrap;html=1;rounded=0;" vertex="1" parent="1">
          <mxGeometry x="380" y="740" width="80" height="50" as="geometry" />
        </mxCell>
        <mxCell id="6g5vQFqCNQvV4qK4Rjls-37" value="Address" style="ellipse;whiteSpace=wrap;html=1;rounded=0;" vertex="1" parent="1">
          <mxGeometry x="25" y="740" width="80" height="50" as="geometry" />
        </mxCell>
        <mxCell id="6g5vQFqCNQvV4qK4Rjls-38" value="Post" style="ellipse;whiteSpace=wrap;html=1;rounded=0;" vertex="1" parent="1">
          <mxGeometry x="-60" y="740" width="80" height="50" as="geometry" />
        </mxCell>
        <mxCell id="6g5vQFqCNQvV4qK4Rjls-39" style="rounded=0;orthogonalLoop=1;jettySize=auto;html=1;exitX=0.5;exitY=1;exitDx=0;exitDy=0;entryX=0.655;entryY=-0.009;entryDx=0;entryDy=0;entryPerimeter=0;endArrow=none;endFill=0;" edge="1" parent="1" source="6g5vQFqCNQvV4qK4Rjls-13" target="6g5vQFqCNQvV4qK4Rjls-38">
          <mxGeometry relative="1" as="geometry" />
        </mxCell>
      </root>
    </mxGraphModel>
  </diagram>
</mxfile>
